<?xml version="1.0" standalone="no"?>
<!DOCTYPE svg PUBLIC "-//W3C//DTD SVG 20010904//EN"
 "http://www.w3.org/TR/2001/REC-SVG-20010904/DTD/svg10.dtd">
<svg version="1.0" xmlns="http://www.w3.org/2000/svg"
 width="500.000000pt" height="500.000000pt" viewBox="0 0 500.000000 500.000000"
 preserveAspectRatio="xMidYMid meet">
<metadata>
Created by potrace 1.14, written by Peter Selinger 2001-2017
</metadata>
<g transform="translate(0.000000,500.000000) scale(0.100000,-0.100000)"
fill="#000000" stroke="none">
<path d="M990 4980 c-174 -32 -345 -103 -480 -199 -92 -65 -238 -213 -297
-301 -96 -144 -162 -301 -194 -465 -21 -104 -21 -2926 0 -3030 48 -245 162
-459 335 -630 189 -187 384 -289 645 -336 99 -18 176 -19 1501 -19 1325 0
1402 1 1501 19 261 47 458 150 645 336 174 173 287 385 335 630 21 104 21
2926 0 3030 -48 245 -161 457 -335 630 -187 186 -384 289 -645 336 -99 18
-174 19 -1510 18 -1305 -1 -1413 -2 -1501 -19z m1408 -1058 c4 -89 -6 -338
-13 -330 -9 10 -27 344 -21 392 11 87 28 56 34 -62z m-727 -329 c38 -78 69
-145 69 -150 -1 -14 -131 190 -161 252 -16 33 -29 69 -29 80 0 39 49 -35 121
-182z m1689 144 c0 -40 -107 -264 -157 -332 -15 -20 -15 -20 -8 0 24 68 85
227 95 247 29 56 70 106 70 85z m-1801 -494 c9 -17 11 -16 30 2 20 17 23 18
38 2 16 -15 18 -15 35 0 17 16 20 16 35 0 16 -15 18 -15 35 0 17 15 20 15 39
-3 20 -18 22 -18 34 -1 15 21 29 22 45 2 12 -14 15 -14 32 2 17 16 20 16 35 0
16 -15 18 -15 35 0 17 15 19 15 39 -3 19 -17 21 -18 30 -1 13 22 35 22 48 0 9
-17 11 -16 30 2 20 17 23 18 38 2 16 -15 18 -15 35 0 17 15 19 15 37 -1 16
-15 19 -15 31 -1 17 20 37 19 49 -2 9 -17 11 -16 30 2 20 17 23 18 38 2 16
-15 18 -15 35 0 17 16 20 16 35 0 16 -15 18 -15 35 0 17 15 20 15 39 -3 20
-18 22 -18 34 -1 15 21 29 22 45 2 12 -14 15 -14 32 2 17 16 20 16 35 0 16
-15 18 -15 35 0 17 15 19 15 39 -3 19 -17 21 -18 30 -1 6 9 16 17 24 17 8 0
18 -8 24 -17 9 -17 11 -16 30 2 20 17 23 18 38 2 16 -15 18 -15 35 0 17 15 19
15 37 -1 16 -15 19 -15 31 -1 17 20 37 19 49 -2 9 -17 11 -16 30 2 20 17 23
18 38 2 16 -15 18 -15 35 0 17 16 20 16 35 0 16 -15 18 -15 35 0 17 15 20 15
39 -3 20 -18 22 -18 34 -1 15 21 29 22 45 2 12 -14 15 -14 32 2 17 16 20 16
35 0 16 -15 18 -15 35 0 17 15 19 15 39 -3 19 -17 21 -18 30 -1 13 22 35 22
48 0 9 -17 11 -16 30 1 l21 19 0 -849 c0 -467 -3 -859 -6 -870 -5 -18 -16 -23
-67 -28 -34 -4 -121 -18 -194 -32 l-131 -25 -175 25 c-191 28 -388 33 -487 13
l-55 -12 -3 -42 c-2 -26 1 -43 7 -43 6 0 11 -5 11 -11 0 -7 -93 -10 -315 -7
l-314 3 7 -25 c23 -89 -33 -163 -122 -162 -31 1 -46 -3 -50 -14 -3 -8 -20 -37
-38 -64 l-33 -50 -235 0 -235 0 -39 53 c-72 95 -98 188 -109 385 l-5 82 269 0
269 0 0 835 c0 521 4 835 10 835 5 0 13 -8 19 -17z m-442 -117 l68 -69 -49 34
c-63 44 -146 118 -146 130 0 19 60 -26 127 -95z m2863 -10 c-17 -17 -181 -89
-187 -82 -9 9 158 95 187 96 13 0 13 -2 0 -14z m-2666 -917 c-9 -10 -26 -19
-37 -19 -27 0 -57 -28 -57 -54 0 -45 14 -51 129 -56 128 -6 151 -18 151 -81 0
-29 -6 -42 -26 -58 -25 -19 -40 -21 -201 -21 -96 0 -183 -4 -193 -10 -36 -19
-34 -97 4 -122 6 -4 89 -8 184 -8 l172 0 0 -66 c0 -43 -4 -63 -11 -59 -6 5 -8
27 -3 61 l6 54 -175 0 -176 0 -20 26 c-24 30 -27 80 -7 106 23 31 66 38 241
38 162 0 175 1 185 19 15 29 12 67 -6 85 -12 12 -38 16 -113 16 -84 0 -102 3
-125 21 -47 37 -26 119 30 119 13 0 31 11 41 24 10 13 20 20 22 14 1 -5 -5
-18 -15 -29z m2309 -719 c135 -20 167 -60 146 -186 -15 -92 -52 -155 -108
-184 -154 -78 -335 12 -383 193 -11 42 -10 51 5 80 24 43 71 74 142 91 73 17
110 19 198 6z m-641 -33 c93 -46 111 -100 66 -199 -35 -75 -70 -113 -135 -144
-93 -46 -219 -31 -274 32 -42 48 -80 192 -65 246 19 70 94 100 246 96 91 -3
112 -7 162 -31z m-462 13 c0 -5 -4 -10 -10 -10 -5 0 -10 5 -10 10 0 6 5 10 10
10 6 0 10 -4 10 -10z"/>
<path d="M1970 2806 l0 -166 30 0 29 0 3 113 3 112 65 -110 c60 -100 68 -110
98 -113 l32 -3 0 165 0 166 -30 0 -30 0 0 -112 c0 -80 -3 -109 -11 -101 -6 6
-36 55 -68 109 -52 90 -60 99 -89 102 l-32 3 0 -165z"/>
<path d="M2300 2805 l0 -165 110 0 110 0 0 25 c0 25 -1 25 -80 25 l-80 0 0 50
0 50 65 0 c63 0 65 1 65 25 0 24 -2 25 -65 25 l-65 0 0 40 0 40 80 0 c79 0 80
0 80 25 l0 25 -110 0 -110 0 0 -165z"/>
<path d="M2542 2958 c3 -7 20 -82 39 -166 l34 -153 29 3 c28 3 31 7 59 110 17
60 32 106 35 104 2 -3 16 -51 31 -108 27 -99 29 -103 57 -106 l29 -3 33 143
c19 79 36 153 39 166 4 19 1 22 -25 22 -29 0 -31 -3 -42 -57 -25 -124 -38
-168 -43 -153 -6 15 -27 90 -47 168 -9 34 -15 42 -33 42 -21 0 -26 -11 -52
-110 -17 -60 -33 -110 -36 -110 -3 0 -14 44 -24 98 -23 124 -22 122 -57 122
-20 0 -29 -4 -26 -12z"/>
<path d="M3014 2951 c-35 -22 -49 -58 -35 -94 12 -31 42 -52 102 -72 58 -19
73 -36 65 -70 -6 -24 -10 -26 -54 -23 -38 2 -49 8 -57 26 -13 30 -65 32 -65 2
0 -62 126 -103 199 -65 32 16 41 33 41 79 0 42 -28 68 -103 96 -69 26 -87 50
-57 80 27 27 56 25 86 -5 33 -33 77 -34 72 -3 -8 58 -129 89 -194 49z"/>
<path d="M1930 2495 c0 -13 84 -15 700 -15 616 0 700 2 700 15 0 13 -84 15
-700 15 -616 0 -700 -2 -700 -15z"/>
<path d="M2720 1950 l0 -280 290 0 290 0 0 280 0 280 -290 0 -290 0 0 -280z
m122 51 l3 -130 63 55 64 54 25 -20 c14 -11 30 -20 35 -20 5 0 31 17 58 37 35
26 48 42 45 54 -4 13 4 17 42 22 27 3 49 4 51 2 2 -1 -2 -23 -9 -49 -9 -38
-14 -44 -25 -35 -9 7 -18 8 -26 2 -7 -5 -39 -31 -72 -57 l-59 -47 -30 24 -31
24 -68 -56 c-108 -90 -106 -91 142 -91 136 0 210 -4 210 -10 0 -7 -76 -9 -222
-8 l-223 3 -3 188 c-2 160 0 187 12 187 13 0 16 -23 18 -129z"/>
<path d="M1900 2155 l0 -25 323 2 322 3 3 23 3 22 -325 0 -326 0 0 -25z"/>
<path d="M1900 1955 l0 -25 326 0 325 0 -3 23 -3 22 -322 3 -323 2 0 -25z"/>
<path d="M1900 1745 l0 -25 325 0 325 0 0 25 0 25 -325 0 -325 0 0 -25z"/>
<path d="M1737 1320 c-20 -72 -20 -70 -3 -70 24 0 66 41 66 64 0 23 -25 66
-39 66 -4 0 -15 -27 -24 -60z"/>
</g>
</svg>
